<svg xmlns="http://www.w3.org/2000/svg" height="24px" viewBox="0 -960 960 960" width="24px" fill="#000000"><path d="M458.62-488.62Q450-497.23 450-510v-323.08q0-12.77 8.62-21.38 8.61-8.62 21.38-8.62t21.38 8.62q8.62 8.61 8.62 21.38V-510q0 12.77-8.62 21.38Q492.77-480 480-480t-21.38-8.62ZM347.39-166.77q-61.85-26.77-107.85-72.77-46-46-72.77-107.85Q140-409.23 140-480q0-59.85 20.58-115.81t58.96-101.65q8.31-10.54 20.88-10.04 12.58.5 22.5 10.42 8.31 8.31 7.31 20.08-1 11.77-8.69 22.31-30.08 36.77-45.81 81.88Q200-527.69 200-480q0 117 81.5 198.5T480-200q117 0 198.5-81.5T760-480q0-48.31-15.42-93.73-15.43-45.42-46.73-82.19-7.7-9.93-8.7-21.58-1-11.65 7.31-19.96 9.31-9.31 21.89-9.62 12.57-.3 20.88 9.62 39 45.69 59.88 101.34Q820-540.46 820-480q0 70.77-26.77 132.61-26.77 61.85-72.77 107.85-46 46-107.85 72.77Q550.77-140 480-140q-70.77 0-132.61-26.77Z"/></svg>