<svg xmlns="http://www.w3.org/2000/svg" height="24px" viewBox="0 -960 960 960" width="24px" fill="#000000"><path d="M721.38-97.69q24.62-65.08 33.27-133.35Q763.31-299.31 756-368q-31.69 86.07-107.46 137.04Q572.77-180 480-180q-79 0-142-38.16-63-38.15-106.96-101.26-43.96-63.12-67.27-144.97-23.31-81.84-23.31-168.84 0-58.38 8.12-115.85 8.11-57.46 26.81-113.23h63.23q-23.23 65.47-32.58 133.54Q196.69-660.69 204-592q31.69-86.07 107.46-137.04Q387.23-780 480-780q79 0 142 38.16 63 38.15 106.96 101.26 43.96 63.12 67.27 144.77 23.31 81.66 23.31 169.04 0 58.38-8.12 115.85-8.11 57.46-26.81 113.23h-63.23ZM480-240q100 0 170-70t70-170q0-100-70-170t-170-70q-100 0-170 70t-70 170q0 100 70 170t170 70Zm98.96-141.04Q620-422.08 620-480q0-57.92-41.04-98.96Q537.92-620 480-620q-57.92 0-98.96 41.04Q340-537.92 340-480q0 57.92 41.04 98.96Q422.08-340 480-340q57.92 0 98.96-41.04ZM423.5-423.5Q400-447 400-480t23.5-56.5Q447-560 480-560t56.5 23.5Q560-513 560-480t-23.5 56.5Q513-400 480-400t-56.5-23.5ZM480-480Z"/></svg>